<svg xmlns="http://www.w3.org/2000/svg" xmlns:xlink="http://www.w3.org/1999/xlink" viewBox="0 0 915.22 570.3"><defs><style>.cls-1{fill:none;}.cls-2{fill:#e86987;}.cls-3{fill:#d73f51;}.cls-4{fill:#e6792e;}.cls-5{fill:#f4ac21;}.cls-6{fill:#91ca70;}.cls-7{fill:#72bec3;}.cls-8{fill:#5a5db7;}.cls-9{fill:#724188;}.cls-10{fill:#fff;}.cls-11{fill:url(#New_Pattern_Swatch_2);}.cls-12{fill:url(#New_Pattern_Swatch_2-5);}</style><pattern id="New_Pattern_Swatch_2" data-name="New Pattern Swatch 2" width="603.69" height="637.91" patternTransform="translate(-166.08 -298.4) rotate(-107)" patternUnits="userSpaceOnUse" viewBox="0 0 603.69 637.91"><rect class="cls-1" width="603.69" height="637.91"/><rect class="cls-2" width="75.46" height="637.91"/><rect class="cls-3" x="75.46" width="75.46" height="637.91"/><rect class="cls-4" x="150.92" width="75.46" height="637.91"/><rect class="cls-5" x="226.38" width="75.46" height="637.91"/><rect class="cls-6" x="301.85" width="75.46" height="637.91"/><rect class="cls-7" x="377.31" width="75.46" height="637.91"/><rect class="cls-8" x="452.77" width="75.46" height="637.91"/><rect class="cls-9" x="528.23" width="75.46" height="637.91"/></pattern><pattern id="New_Pattern_Swatch_2-5" data-name="New Pattern Swatch 2" width="603.69" height="637.91" patternTransform="translate(-41.01 -337.68) rotate(-107)" patternUnits="userSpaceOnUse" viewBox="0 0 603.69 637.91"><rect class="cls-1" width="603.69" height="637.91"/><rect class="cls-2" width="75.46" height="637.91"/><rect class="cls-3" x="75.46" width="75.46" height="637.91"/><rect class="cls-4" x="150.92" width="75.46" height="637.91"/><rect class="cls-5" x="226.38" width="75.46" height="637.91"/><rect class="cls-6" x="301.85" width="75.46" height="637.91"/><rect class="cls-7" x="377.31" width="75.46" height="637.91"/><rect class="cls-8" x="452.77" width="75.46" height="637.91"/><rect class="cls-9" x="528.23" width="75.46" height="637.91"/></pattern></defs><title>Asset 24</title><g id="Layer_2" data-name="Layer 2"><g id="Layer_1-2" data-name="Layer 1"><path class="cls-10" d="M62.6,49.12c.78-2,1.54-4.19,2.28-6.44S66.36,38,67.1,35.47q.91,3,2.09,6.36t2.62,7l21.81,54.53,37-99.34H115.17l-18,48.66q-1.75,4.83-2.87,8.36t-1.76,6.47q-1.11-3.86-2.39-7.65c-.85-2.52-1.75-5-2.71-7.57L67.23.26,48,51.34c-.09.22-.24.63-.46,1.24q-2.48,7.24-4.76,14.83-.91-3.15-2.13-6.73c-.8-2.4-1.79-5.18-3-8.36L19.62,4.05H4.27l36.9,99.34Z"/><path class="cls-10" d="M152,87.52A50.69,50.69,0,0,0,168.51,98.4a52.25,52.25,0,0,0,39.15,0,52.37,52.37,0,0,0,16.66-10.91,48.7,48.7,0,0,0,15-35.46,49.23,49.23,0,0,0-3.82-19.24,50.58,50.58,0,0,0-27.69-27.2,53.41,53.41,0,0,0-39.22,0A50.41,50.41,0,0,0,152,16.46a49.25,49.25,0,0,0-11.11,16.26,49.84,49.84,0,0,0-3.78,19.34,49.47,49.47,0,0,0,3.78,19.33A48.64,48.64,0,0,0,152,87.52Zm3.92-49.31a34.54,34.54,0,0,1,7.57-11.56,34.57,34.57,0,0,1,38.18-7.74,33.7,33.7,0,0,1,11.2,7.74,35.67,35.67,0,0,1,7.61,11.63,36.39,36.39,0,0,1,2.65,13.78,35.9,35.9,0,0,1-10.26,25.27,35.15,35.15,0,0,1-11.33,7.78,33.71,33.71,0,0,1-13.29,2.67,33.93,33.93,0,0,1-24.76-10.45,35.36,35.36,0,0,1-7.57-11.56,36.09,36.09,0,0,1-2.62-13.71A36.77,36.77,0,0,1,155.87,38.21Z"/><path class="cls-10" d="M272.45,52.58a68.56,68.56,0,0,0,1.28-6.89,62.25,62.25,0,0,0,.49-6.3c.56,2,1.23,3.94,2,5.94s1.66,4.07,2.71,6.2l25,52,25-50.95a55.84,55.84,0,0,0,2.71-6.66,49.29,49.29,0,0,0,1.67-6.53q.39,2.73.91,6.92c.39,3.35.68,5.4.85,6.14l10.58,47.22h14.44L337,0,309.42,60.29q-.39.91-1.17,2.61a106.31,106.31,0,0,0-4.32,10.45q-1.89-4.91-3.23-8.23t-2-4.77L270.49,0,247.9,99.67h14.3Z"/><polygon class="cls-10" points="425.88 85.76 388.06 85.76 388.06 54.87 425.88 54.87 425.88 41.21 388.06 41.21 388.06 17.24 425.88 17.24 425.88 4.05 372.52 4.05 372.52 99.67 425.88 99.67 425.88 85.76"/><path class="cls-10" d="M467.22,43.89l62,59.5V4.05H514.84V70.34Q512,66.82,509.48,64c-1.7-1.87-3.37-3.64-5-5.29L443.71.26V99.67H458V33.18q2.1,2.94,4.41,5.62T467.22,43.89Z"/><path class="cls-10" d="M638.48,49.12c.78-2,1.54-4.19,2.29-6.44S642.24,38,643,35.47q.9,3,2.09,6.36t2.61,7l21.81,54.53,37-99.34H691.06l-18,48.66q-1.76,4.83-2.87,8.36t-1.76,6.47q-1.11-3.86-2.39-7.65c-.84-2.52-1.75-5-2.71-7.57L643.12.26,623.91,51.34c-.08.22-.24.63-.45,1.24q-2.49,7.24-4.77,14.83-.91-3.15-2.12-6.73c-.81-2.4-1.8-5.18-3-8.36L595.5,4.05H580.15l36.91,99.34Z"/><polygon class="cls-10" points="732.66 53.23 779.69 53.23 779.69 99.67 795.24 99.67 795.24 4.05 779.69 4.05 779.69 39.32 732.66 39.32 732.66 4.05 717.12 4.05 717.12 99.67 732.66 99.67 732.66 53.23"/><path class="cls-10" d="M827.89,87.52A50.69,50.69,0,0,0,844.45,98.4a52.28,52.28,0,0,0,39.16,0,52.33,52.33,0,0,0,16.65-10.91,49.78,49.78,0,0,0,11.14-54.7,50.66,50.66,0,0,0-27.69-27.2,53.44,53.44,0,0,0-39.23,0,50.62,50.62,0,0,0-16.59,10.84A48.91,48.91,0,0,0,813,52.06a49.29,49.29,0,0,0,3.79,19.33A48.76,48.76,0,0,0,827.89,87.52Zm3.92-49.31a34.57,34.57,0,0,1,7.58-11.56,34.26,34.26,0,0,1,49.38,0,35.83,35.83,0,0,1,7.61,11.63A36.38,36.38,0,0,1,899,52.06a35.83,35.83,0,0,1-10.25,25.27,35.19,35.19,0,0,1-11.34,7.78,33.71,33.71,0,0,1-13.29,2.67,33.93,33.93,0,0,1-24.75-10.45,35.39,35.39,0,0,1-7.58-11.56,36.27,36.27,0,0,1-2.61-13.71A37,37,0,0,1,831.81,38.21Z"/><path class="cls-10" d="M49.23,519.77a17.84,17.84,0,0,0,9.93-6.64,19.87,19.87,0,0,0,3.41-11.86,24.69,24.69,0,0,0-2.37-10.86,20.42,20.42,0,0,0-6.67-7.94,22,22,0,0,0-8.13-3.4,77.11,77.11,0,0,0-14.77-1H7.3v88.8H30.76q13.27,0,18.91-1.52a21.11,21.11,0,0,0,9.42-5.21,23.06,23.06,0,0,0,5.57-8.25,27.25,27.25,0,0,0,2-10.25q0-8.93-4.65-14.77A19.26,19.26,0,0,0,49.23,519.77ZM22,490.05h5.76q11.45,0,15.56,2.94t4.11,10.22q0,6.68-4.46,9.5t-15.21,2.82H22Zm27.51,57.26a11.82,11.82,0,0,1-4.3,4.73,15.38,15.38,0,0,1-6.19,2.12,83.42,83.42,0,0,1-11.83.61H22V526.44h9.74a44.21,44.21,0,0,1,7.31.49,18.77,18.77,0,0,1,4.9,1.52,12.59,12.59,0,0,1,5.25,4.91,14.48,14.48,0,0,1,1.83,7.4A14.1,14.1,0,0,1,49.54,547.31Z"/><path class="cls-10" d="M142.51,532q0,12-5.79,18t-17.23,6q-11.52,0-17.3-6T96.4,532V478H81.54V533.3q0,18.08,9.42,27t28.53,8.91q19.1,0,28.58-8.94t9.49-27V478H142.51Z"/><polygon class="cls-10" points="178.3 566.84 229.97 566.84 229.97 553.92 193.35 553.92 193.35 525.23 229.97 525.23 229.97 512.55 193.35 512.55 193.35 490.29 229.97 490.29 229.97 478.04 178.3 478.04 178.3 566.84"/><path class="cls-10" d="M316.1,539.61q-2.72-3.29-5.18-5.89c-1.65-1.74-3.27-3.37-4.87-4.91l-58.82-54.29v92.32h13.85V505.09q2,2.73,4.27,5.22T270,515l60,55.26V478H316.1Z"/><path class="cls-10" d="M431.7,489.57a49.18,49.18,0,0,0-16-10.07,53.82,53.82,0,0,0-38,0,49.15,49.15,0,0,0-16.07,10.07,45.67,45.67,0,0,0-10.75,15.1,45.87,45.87,0,0,0,0,35.91,45.32,45.32,0,0,0,10.75,15,49.53,49.53,0,0,0,16,10.1,51.93,51.93,0,0,0,19.06,3.54,51,51,0,0,0,35-13.64,45.55,45.55,0,0,0,10.79-15,45.05,45.05,0,0,0,0-35.76A46.64,46.64,0,0,0,431.7,489.57Zm-3.76,45.76a33.26,33.26,0,0,1-7.37,10.77,33.82,33.82,0,0,1-23.84,9.7,34.34,34.34,0,0,1-13-2.49,33.27,33.27,0,0,1-10.94-7.21,32.92,32.92,0,0,1-7.33-10.74,32.4,32.4,0,0,1-2.53-12.74,33,33,0,0,1,2.53-12.86A32,32,0,0,1,372.76,499a33.16,33.16,0,0,1,11-7.22,34.36,34.36,0,0,1,13-2.49,34,34,0,0,1,13,2.52A32.61,32.61,0,0,1,420.57,499a33,33,0,0,1,7.37,10.79,32.54,32.54,0,0,1,2.56,12.8A32.14,32.14,0,0,1,427.94,535.33Z"/><path class="cls-10" d="M494.12,515.4c-.46-.2-1.09-.48-1.89-.85q-15.69-6.9-15.69-14.92a10.11,10.11,0,0,1,3.57-8.12q3.58-3,9.65-3a14.86,14.86,0,0,1,7.62,1.94,19.24,19.24,0,0,1,6.1,6.13l11.76-5.82a20.23,20.23,0,0,0-9.54-10.89Q498.8,476,488.56,476q-12.46,0-20.15,6.73t-7.68,17.59a20.71,20.71,0,0,0,5.09,14.16q5.1,5.81,20.4,13c.67.28,1.64.72,2.91,1.33q13.53,6.12,13.53,14a12.3,12.3,0,0,1-4,9.58q-4,3.58-10.66,3.58-7.08,0-11.64-3.12a15.94,15.94,0,0,1-6.26-9.07l-12,5.34A24.31,24.31,0,0,0,468,564q7.54,5.22,19.38,5.21,14.1,0,22.39-7.43t8.28-20A21.07,21.07,0,0,0,513,527.26Q507.84,521.47,494.12,515.4Z"/><path class="cls-10" d="M570.5,567.39H587l11.18-22.87h38.16l10.92,22.87h16.51l-46.58-92.32Zm48.62-59.6q.92,2.52,1.77,4.46l9.87,20.26H603.92l9.87-20.26c.61-1.41,1.22-3,1.81-4.64s1.15-3.49,1.67-5.43C617.89,504.24,618.5,506.12,619.12,507.79Z"/><rect class="cls-10" x="673.06" y="478.59" width="15.66" height="88.8"/><path class="cls-10" d="M760.75,519.74q5.6-6,5.6-16.71a25.61,25.61,0,0,0-2.44-11.16,21.29,21.29,0,0,0-6.91-8.31,24.32,24.32,0,0,0-9-3.82,74,74,0,0,0-14.9-1.15H711.22v88.8h14.67V527.66h1.77l32,39.73h17.7L744.24,527Q755.16,525.77,760.75,519.74Zm-33.88-3.3V491h2.83q11.85,0,16.22,3c2.91,2,4.37,5.45,4.37,10.35q0,6.78-4.08,9.46t-16.51,2.67Z"/><polygon class="cls-10" points="786.67 567.38 840.42 567.38 840.42 554.47 802.33 554.47 802.33 525.78 840.42 525.78 840.42 513.1 802.33 513.1 802.33 490.84 840.42 490.84 840.42 478.59 786.67 478.59 786.67 567.38"/><path class="cls-10" d="M890.29,516c-.49-.2-1.14-.48-2-.85Q872,508.19,872,500.18a10,10,0,0,1,3.72-8.13q3.71-3,10-3a15.92,15.92,0,0,1,7.92,1.94,19.61,19.61,0,0,1,6.35,6.13l12.24-5.83a20.43,20.43,0,0,0-9.93-10.88q-7.19-3.79-17.83-3.79-13,0-21,6.73a21.9,21.9,0,0,0-8,17.59,20.22,20.22,0,0,0,5.3,14.16q5.29,5.79,21.21,12.95c.71.28,1.71.73,3,1.34q14.08,6.12,14.08,13.95a12.07,12.07,0,0,1-4.11,9.58Q891,556.47,884,556.47q-7.37,0-12.1-3.13a15.89,15.89,0,0,1-6.52-9.06l-12.5,5.33a24.31,24.31,0,0,0,10.3,14.92q7.86,5.22,20.16,5.22,14.67,0,23.29-7.43t8.62-20.05a20.51,20.51,0,0,0-5.33-14.46Q904.57,522,890.29,516Z"/><path class="cls-11" d="M660.61,153.12A101.69,101.69,0,0,0,620,129.78q-23.12-7-78.81-7H491.4V442.11h60.76q46.71,0,68.92-6.87a101,101,0,0,0,39.53-23q22.7-21.15,34.47-54.2t11.75-75.35q0-42.31-11.75-75.36T660.61,153.12Zm-49.44,191.1q-9,19.14-28.55,19.14h-5.57V202.89h5.57q19.56,0,28.55,19.44t9,61.09Q620.15,325.08,611.17,344.22Z"/><path class="cls-11" d="M413.69,167.93Q397,145.46,375.08,133.28a91.46,91.46,0,0,0-91.17,0q-21.77,12.18-38.3,34.65a165.34,165.34,0,0,0-26,51.5,217.19,217.19,0,0,0,0,122.87,165.11,165.11,0,0,0,26,51.6q16.53,22.47,38.3,34.65a92.15,92.15,0,0,0,45.59,12.17q23.5,0,45.36-12.17t38.83-34.65a168,168,0,0,0,25.64-51.39,209.44,209.44,0,0,0,8.8-61.59,208.84,208.84,0,0,0-8.88-61.6A167.83,167.83,0,0,0,413.69,167.93ZM329.42,365.78c-19.06,0-34.52-38-34.52-84.87s15.46-84.86,34.52-84.86,34.52,38,34.52,84.86S348.49,365.78,329.42,365.78Z"/><path class="cls-12" d="M182.91,342.39q-10.26,12.06-20.45,18.51c-6.65,4.2-15.84,2.42-23.17,3.55q-22.41-2.79-37.66-22.5Q83.9,319,83.9,284.15q0-37.42,17.41-60.68t45.51-23.27c1.19,0,2.36.05,3.52.13,3.39,1.31,6.7.76,9.93,2.79,7,4.43,14,8.63,21.08,17v-85.9c-3.4-1.34-6.79-2.53-10.18-3.53-1.56-.46-3.12-.88-4.68-1.27-3.5-1.38-7-2.6-10.48-3.63-10.47-3.11-21-2.45-31.74-2.45-17.82,0-34,5.79-48.52,12.94s-27.59,17.94-39.17,32.37A157.12,157.12,0,0,0,9.1,219.09Q0,246.91,0,280.91,0,323.2,14.36,357a143.09,143.09,0,0,0,41.76,56,98.27,98.27,0,0,0,31.15,17.5,114.36,114.36,0,0,0,37,5.77,109.87,109.87,0,0,0,19.56-1.76,109,109,0,0,0,27.34-4.49q4.77-1.41,9.55-3.28Z"/><polygon class="cls-12" points="899.02 195.47 899.02 127.22 746.28 127.22 746.28 438.51 899.02 438.51 899.02 368.77 823.18 368.77 823.18 316.24 899.02 316.24 899.02 249.48 823.18 249.48 823.18 195.47 899.02 195.47"/></g></g></svg>