<svg xmlns="http://www.w3.org/2000/svg" viewBox="0 0 298.47 40.59"><defs><style>.cls-1{fill:#a3195b;}</style></defs><title>Asset 1logo</title><g id="Layer_2" data-name="Layer 2"><g id="Layer_1-2" data-name="Layer 1"><path class="cls-1" d="M190.92,37a.45.45,0,0,1-.45-.44V4a.45.45,0,0,1,.45-.44.44.44,0,0,1,.44.44V36.55a.44.44,0,0,1-.44.44"/><path class="cls-1" d="M115.44,14.11V10.43a2.56,2.56,0,0,1,.72-2,2.72,2.72,0,0,1,1.89-.64,3,3,0,0,1,1.93.6,2,2,0,0,1,.73,1.58.47.47,0,0,1-.13.39.52.52,0,0,1-.38.11c-.33,0-.51-.11-.51-.35a1.44,1.44,0,0,0-1.62-1.4c-1.06,0-1.6.57-1.6,1.73v3.68c0,1.16.54,1.73,1.6,1.73a1.6,1.6,0,0,0,1.19-.43,1.8,1.8,0,0,0,.43-1.3V12.86h-1.46a.29.29,0,0,1-.26-.13.48.48,0,0,1,0-.6.31.31,0,0,1,.25-.13h2.13a.31.31,0,0,1,.26.12.4.4,0,0,1,.09.27v1.72a2.58,2.58,0,0,1-.72,2,3.19,3.19,0,0,1-3.83,0,2.58,2.58,0,0,1-.72-2"/><path class="cls-1" d="M122,14.11V10.43a2.56,2.56,0,0,1,.71-2,3.19,3.19,0,0,1,3.83,0,2.56,2.56,0,0,1,.72,2v3.68a2.58,2.58,0,0,1-.72,2,3.19,3.19,0,0,1-3.83,0,2.57,2.57,0,0,1-.71-2m1,0c0,1.16.54,1.73,1.61,1.73a1.59,1.59,0,0,0,1.18-.43,1.76,1.76,0,0,0,.42-1.3V10.43a1.76,1.76,0,0,0-.42-1.3,1.56,1.56,0,0,0-1.18-.43c-1.07,0-1.61.57-1.61,1.73Z"/><path class="cls-1" d="M128.81,16.35V8.13a.33.33,0,0,1,.14-.27.63.63,0,0,1,.33-.09h2.1a3.17,3.17,0,0,1,1.81.45,1.83,1.83,0,0,1,.67,1.64,2.59,2.59,0,0,1-.28,1.27,1.5,1.5,0,0,1-.76.73,1.88,1.88,0,0,1,.94.72,2.38,2.38,0,0,1,.32,1.36v.21a2.53,2.53,0,0,1-.66,1.94,2.48,2.48,0,0,1-1.76.61h-2.38a.51.51,0,0,1-.34-.1.31.31,0,0,1-.13-.25m1-4.92h1.53a1.55,1.55,0,0,0,1.11-.34,1.49,1.49,0,0,0,.35-1.09c0-.87-.5-1.3-1.5-1.3h-1.49Zm0,4.34h1.65c1,0,1.56-.56,1.56-1.67v-.21a1.68,1.68,0,0,0-.39-1.23,1.71,1.71,0,0,0-1.17-.37h-1.65Z"/><path class="cls-1" d="M135.35,16.33V8.12a.32.32,0,0,1,.15-.27.83.83,0,0,1,.36-.08.87.87,0,0,1,.37.08.34.34,0,0,1,.15.27v8.21a.33.33,0,0,1-.15.27.66.66,0,0,1-.37.1.63.63,0,0,1-.36-.1.31.31,0,0,1-.15-.27"/><path class="cls-1" d="M138,16.33V8.13a.33.33,0,0,1,.14-.27.58.58,0,0,1,.33-.09h4.35a.29.29,0,0,1,.26.13.55.55,0,0,1,.09.32.52.52,0,0,1-.1.33.29.29,0,0,1-.25.15H139v3.1h1.9a.31.31,0,0,1,.26.12.58.58,0,0,1,.1.32.62.62,0,0,1-.09.29.34.34,0,0,1-.27.12H139v3.12h3.79a.3.3,0,0,1,.25.14.52.52,0,0,1,.1.33.53.53,0,0,1-.09.32.3.3,0,0,1-.26.14h-4.35a.52.52,0,0,1-.33-.1.32.32,0,0,1-.14-.27"/><path class="cls-1" d="M144.15,16.33V8.12a.3.3,0,0,1,.1-.24.36.36,0,0,1,.26-.11h2.25a3.09,3.09,0,0,1,2,.57,2.19,2.19,0,0,1,.74,1.87,2.13,2.13,0,0,1-1.82,2.38L149.46,16a.33.33,0,0,1,0,.17.43.43,0,0,1-.19.35.61.61,0,0,1-.42.17c-.17,0-.32-.14-.46-.4l-1.85-3.58h-1.4v3.59a.29.29,0,0,1-.16.27.6.6,0,0,1-.35.1.66.66,0,0,1-.37-.1.29.29,0,0,1-.15-.27m1-4.44h1.58c1.12,0,1.68-.54,1.68-1.61s-.56-1.58-1.68-1.58h-1.58Z"/><path class="cls-1" d="M150.67,16.33V8.12c0-.24.17-.35.51-.35a.63.63,0,0,1,.43.15,1.72,1.72,0,0,1,.35.49l3,6V8.12a.33.33,0,0,1,.16-.27.85.85,0,0,1,.72,0,.32.32,0,0,1,.15.27v8.21a.31.31,0,0,1-.15.27.61.61,0,0,1-.36.1.76.76,0,0,1-.65-.47l-3.18-6.15v6.25a.31.31,0,0,1-.15.27.7.7,0,0,1-.72,0,.31.31,0,0,1-.15-.27"/><path class="cls-1" d="M157.56,14.11V10.43a2.56,2.56,0,0,1,.72-2,2.72,2.72,0,0,1,1.91-.64,2.78,2.78,0,0,1,1.92.64,2.56,2.56,0,0,1,.72,2v3.68a2.58,2.58,0,0,1-.72,2,2.83,2.83,0,0,1-1.92.64,2.77,2.77,0,0,1-1.91-.64,2.58,2.58,0,0,1-.72-2m1,0c0,1.16.53,1.73,1.6,1.73a1.62,1.62,0,0,0,1.19-.43,1.8,1.8,0,0,0,.42-1.3V10.43a1.8,1.8,0,0,0-.42-1.3,1.58,1.58,0,0,0-1.19-.43c-1.07,0-1.6.57-1.6,1.73Z"/><path class="cls-1" d="M166.68,16.35V8.12a.3.3,0,0,1,.13-.25.48.48,0,0,1,.33-.1h2.17a2.8,2.8,0,0,1,1.92.64,2.59,2.59,0,0,1,.71,2V14a2.57,2.57,0,0,1-.71,2,2.81,2.81,0,0,1-1.92.65h-2.17a.48.48,0,0,1-.33-.1.31.31,0,0,1-.13-.25m1-.58h1.61a1.56,1.56,0,0,0,1.18-.43,1.77,1.77,0,0,0,.43-1.3V10.43a1.76,1.76,0,0,0-.43-1.3,1.56,1.56,0,0,0-1.18-.43H167.7Z"/><path class="cls-1" d="M173.47,16.33V8.13a.33.33,0,0,1,.14-.27.58.58,0,0,1,.33-.09h4.34a.3.3,0,0,1,.27.13.55.55,0,0,1,.09.32.52.52,0,0,1-.1.33.3.3,0,0,1-.26.15H174.5v3.1h1.9a.32.32,0,0,1,.26.12.58.58,0,0,1,.1.32.53.53,0,0,1-.1.29.3.3,0,0,1-.26.12h-1.9v3.12h3.78a.31.31,0,0,1,.26.14.52.52,0,0,1,.1.33.53.53,0,0,1-.09.32.31.31,0,0,1-.27.14h-4.34a.52.52,0,0,1-.33-.1.32.32,0,0,1-.14-.27"/><path class="cls-1" d="M115.09,30.55a1.42,1.42,0,0,1,.31-.82.88.88,0,0,1,.71-.43.9.9,0,0,1,.53.23,6.55,6.55,0,0,1,.58.49,2.5,2.5,0,0,0,.79.49,2.88,2.88,0,0,0,1.15.23,2.46,2.46,0,0,0,1.43-.4,1.3,1.3,0,0,0,.58-1.16,1.53,1.53,0,0,0-.31-1,2.48,2.48,0,0,0-.83-.7,10.64,10.64,0,0,0-1.12-.54c-.4-.17-.82-.37-1.23-.58a8.4,8.4,0,0,1-1.13-.72,3,3,0,0,1-.82-1.08,4,4,0,0,1,.07-3.24,2.93,2.93,0,0,1,1-1.14,4.7,4.7,0,0,1,1.38-.6,6.06,6.06,0,0,1,1.56-.19,8.44,8.44,0,0,1,1,.06,8.26,8.26,0,0,1,1.11.21,2.41,2.41,0,0,1,1,.46,1,1,0,0,1,.36.74,1.47,1.47,0,0,1-.25.82.74.74,0,0,1-.68.43,3.52,3.52,0,0,1-.87-.34,3.64,3.64,0,0,0-1.6-.34,2.68,2.68,0,0,0-1.5.36,1.18,1.18,0,0,0-.52,1,1.17,1.17,0,0,0,.42.9,3.29,3.29,0,0,0,1.07.63c.43.16.88.37,1.38.61a11.36,11.36,0,0,1,1.38.8A3.25,3.25,0,0,1,123.07,27,4,4,0,0,1,123.5,29a3.5,3.5,0,0,1-1.18,2.83,4.58,4.58,0,0,1-3.09,1,5.74,5.74,0,0,1-2.92-.7c-.81-.47-1.22-1-1.22-1.53"/><path class="cls-1" d="M123.72,31.58a.77.77,0,0,1,0-.19l3.46-11.27a.89.89,0,0,1,.53-.53,2.42,2.42,0,0,1,1-.18,2.19,2.19,0,0,1,1,.2,1,1,0,0,1,.54.59l3.45,11.27a.84.84,0,0,1,0,.18.8.8,0,0,1-.48.68,2,2,0,0,1-1,.29c-.44,0-.7-.16-.79-.47l-.68-2.38h-3.84l-.66,2.38c-.1.31-.39.47-.9.47a2.3,2.3,0,0,1-1.12-.3.86.86,0,0,1-.53-.74m3.72-3.64h3.11L129,22.43Z"/><path class="cls-1" d="M135,31.88V20.25a.61.61,0,0,1,.34-.55,1.62,1.62,0,0,1,.83-.19,1.67,1.67,0,0,1,1,.24,2.88,2.88,0,0,1,.76,1l3.46,6.69V20.23a.57.57,0,0,1,.34-.54,2,2,0,0,1,1.65,0,.59.59,0,0,1,.34.54V31.88a.6.6,0,0,1-.35.54,1.69,1.69,0,0,1-.82.2,1.4,1.4,0,0,1-1.34-.74l-3.86-7.2v7.2a.6.6,0,0,1-.35.54,1.78,1.78,0,0,1-1.64,0,.61.61,0,0,1-.34-.54"/><path class="cls-1" d="M149.12,31.88V20.23a.57.57,0,0,1,.34-.54,1.74,1.74,0,0,1,.82-.18,1.78,1.78,0,0,1,.83.18.59.59,0,0,1,.34.54V30.57h4.37a.6.6,0,0,1,.52.31,1.51,1.51,0,0,1,0,1.43.58.58,0,0,1-.52.31h-5.68a1.29,1.29,0,0,1-.72-.2.61.61,0,0,1-.3-.54"/><path class="cls-1" d="M157.31,28.62V20.24a.59.59,0,0,1,.34-.55,1.78,1.78,0,0,1,.83-.18,1.74,1.74,0,0,1,.82.18.58.58,0,0,1,.34.55v8.38c0,1.37.66,2.06,2,2.06s2-.69,2-2.06V20.24a.58.58,0,0,1,.34-.55,1.74,1.74,0,0,1,.82-.18,1.78,1.78,0,0,1,.83.18.59.59,0,0,1,.34.55v8.38a3.86,3.86,0,0,1-1.17,3.11,5.47,5.47,0,0,1-6.26,0,3.84,3.84,0,0,1-1.18-3.12"/><path class="cls-1" d="M167.83,31.88V20.23a.58.58,0,0,1,.35-.54,1.74,1.74,0,0,1,.82-.18,1.71,1.71,0,0,1,.82.18.57.57,0,0,1,.35.54V31.88a.6.6,0,0,1-.35.54,1.69,1.69,0,0,1-.82.2,1.63,1.63,0,0,1-.82-.2.6.6,0,0,1-.35-.54"/><path class="cls-1" d="M171.49,30.55a1.37,1.37,0,0,1,.32-.82.86.86,0,0,1,.71-.43.93.93,0,0,1,.52.23,5.27,5.27,0,0,1,.57.49,2.82,2.82,0,0,0,.8.49,2.88,2.88,0,0,0,1.15.23,2.46,2.46,0,0,0,1.43-.4,1.3,1.3,0,0,0,.58-1.16,1.54,1.54,0,0,0-.32-1,2.35,2.35,0,0,0-.82-.7,10.64,10.64,0,0,0-1.12-.54c-.41-.17-.82-.37-1.23-.58a8.4,8.4,0,0,1-1.13-.72,3.1,3.1,0,0,1-.82-1.08,4,4,0,0,1,.07-3.24,2.93,2.93,0,0,1,1-1.14,4.7,4.7,0,0,1,1.38-.6,6.06,6.06,0,0,1,1.56-.19,8.74,8.74,0,0,1,1,.06,8.43,8.43,0,0,1,1.1.21,2.28,2.28,0,0,1,1,.46,1,1,0,0,1,.37.74,1.58,1.58,0,0,1-.26.82.74.74,0,0,1-.68.43,3.85,3.85,0,0,1-.87-.34,3.64,3.64,0,0,0-1.6-.34,2.68,2.68,0,0,0-1.5.36,1.19,1.19,0,0,0-.53,1,1.16,1.16,0,0,0,.44.9,3.24,3.24,0,0,0,1.06.63c.43.16.89.37,1.38.61a11.36,11.36,0,0,1,1.38.8A3.25,3.25,0,0,1,179.47,27,4.11,4.11,0,0,1,179.9,29a3.5,3.5,0,0,1-1.18,2.83,4.58,4.58,0,0,1-3.09,1,5.74,5.74,0,0,1-2.92-.7c-.81-.47-1.22-1-1.22-1.53"/><path class="cls-1" d="M100.16,26.27a3.8,3.8,0,0,0,.31.64,3.18,3.18,0,0,0,.5.59,1.51,1.51,0,0,0,.46.26,2.18,2.18,0,0,0,.6.18,1.08,1.08,0,0,0,.3,0c-.1-.27-.17-.55-.28-.81a6.13,6.13,0,0,0-.46-.74,5.72,5.72,0,0,0-.55-.65,2.09,2.09,0,0,0-.49-.35,1.2,1.2,0,0,0-.53-.11,2,2,0,0,0-.45.07c.07.15.26.21.34.37s.16.4.25.59"/><path class="cls-1" d="M78.4,26.33a4.8,4.8,0,0,1-.3.65,4.1,4.1,0,0,1-.5.58,1.5,1.5,0,0,1-.47.27,2.08,2.08,0,0,1-.6.18.82.82,0,0,1-.3-.05c.1-.26.17-.55.29-.8a4.56,4.56,0,0,1,.45-.74,5.64,5.64,0,0,1,.54-.65A1.92,1.92,0,0,1,78,25.4a1.21,1.21,0,0,1,.53-.09,1.47,1.47,0,0,1,.45.06c-.07.14-.26.22-.34.37a6.07,6.07,0,0,0-.24.59"/><path class="cls-1" d="M95.34,12.42a2.12,2.12,0,0,0,.14-.75,2.09,2.09,0,1,0-4.1.57l-.27.08.09.13L93.66,14s1.44-1.06,1.86-1.47l-.18-.06"/><path class="cls-1" d="M98.41,10.54c-.27-1.27-3.44-4.27-3.78-5S90.21,3.9,89.29,3.73s-1.9,0-4.49,1.15c-3.89,2-6,8.46-6,8.46V14s3.08-2,3.59-2.21.69.5.84.42a4.24,4.24,0,0,0,1.07-1.26c.36-.62,1.86-1.92,2.29-1.89s.75,2.38.75,2.38,1.4-1.77,2-1.37a6.57,6.57,0,0,1,1.33,1.67v-.05a2.72,2.72,0,0,1,.32-1.24l-.92-.93.39-.39.86.84a2.28,2.28,0,0,1,.57-.5l-.61-1.14.49-.27.62,1.15a2.91,2.91,0,0,1,.8-.16V7.64h.56V9.07a2.45,2.45,0,0,1,.71.22l.73-1.14.48.3L95,9.58a2.84,2.84,0,0,1,.65.73l.81-.81.35.33-.94.95a2.56,2.56,0,0,1,.17.89,2.8,2.8,0,0,1,0,.4c.43-.32,1-1.16,2-.52s.7.27.43-1"/><path class="cls-1" d="M89.19,33.26c-6.65,0-12.09-6.94-12.11-15.51s5.37-15.54,12-15.56,12.1,6.93,12.13,15.5-5.38,15.55-12,15.57m-.08-30.5c-6.34,0-11.48,6.74-11.46,15s5.2,15,11.54,14.93,11.49-6.74,11.47-15S95.46,2.74,89.11,2.76"/><path class="cls-1" d="M79,14.42l-.55-.1C79.58,7.9,84,3.4,89.11,3.39c4.45,0,8.44,3.38,10.18,8.64l-.54.17c-1.65-5-5.44-8.26-9.64-8.25-4.86,0-9,4.32-10.13,10.47"/><polygon class="cls-1" points="99.57 19.29 93.47 19.31 93.47 18.82 99.57 18.8 99.57 19.29"/><polygon class="cls-1" points="96.57 26.11 90.47 26.13 90.47 25.64 96.57 25.62 96.57 26.11"/><polygon class="cls-1" points="88.03 26.14 81.94 26.15 81.94 25.66 88.03 25.64 88.03 26.14"/><polygon class="cls-1" points="84.97 19.33 78.87 19.35 78.87 18.86 84.97 18.84 84.97 19.33"/><path class="cls-1" d="M92,17.71a3.7,3.7,0,0,0-2-.39,1.68,1.68,0,0,1-1.27-.74c-.16-.16-.32-.34-.51-.5a6.56,6.56,0,0,0-1.52-.25,11.16,11.16,0,0,1-1.11-.16c-.36-.1-.88-.72-1.89-2.05A18.55,18.55,0,0,0,82.37,12a37.8,37.8,0,0,0-3.49,2.4L78.54,14a29.14,29.14,0,0,1,3.78-2.51h.17c.3.09.71.61,1.66,1.83a10.69,10.69,0,0,0,1.6,1.85c.2,0,.59.09,1,.14a4.68,4.68,0,0,1,1.81.37,5.07,5.07,0,0,1,.57.56c.35.36.56.57.87.57s1.9,0,2.39.58l-.42.36"/><path class="cls-1" d="M91.58,15.31A5.51,5.51,0,0,1,89,12.66a3.41,3.41,0,0,0-.88-.44A3.29,3.29,0,0,1,87,11.57l-.07-.16c0-.44-.09-1-.15-1.45l0-.21c0-.2-.09-.35-.18-.38s-.29.05-.58.37c-.65.74-2.56,2.67-2.64,2.75l-.4-.4s2-2,2.62-2.73c.52-.59.93-.61,1.17-.52a.92.92,0,0,1,.57.86l0,.2c.05.46.1.94.14,1.36a4.22,4.22,0,0,0,.88.44,3.38,3.38,0,0,1,1.09.59l.06.1a5,5,0,0,0,2.35,2.42l-.26.5"/><path class="cls-1" d="M94.66,15.85c-.36-.59-.76-1.25-.88-1.41a22.48,22.48,0,0,1-2.48-1.51l0,0c-.78-.9-1.63-2-2-2.52l-1.64,1.41-.37-.42,1.88-1.62.41,0s1.12,1.56,2.12,2.72A27.53,27.53,0,0,0,94.09,14c.07,0,.15.09,1,1.59l-.48.29"/><path class="cls-1" d="M90.59,17.29l-.32-.46s1-.74,1.77-1.19l.09,0a8.61,8.61,0,0,1,1.53-.09,9.39,9.39,0,0,0,1.09-.06c.06-.08.16-.3.26-.48a4.15,4.15,0,0,1,1.21-1.69l.3.47a4.05,4.05,0,0,0-1,1.47c-.21.41-.31.61-.46.71a3.94,3.94,0,0,1-1.39.14,9.24,9.24,0,0,0-1.37.07c-.74.44-1.68,1.12-1.7,1.14"/><path class="cls-1" d="M93.64,14.32l-.13-.54a6.5,6.5,0,0,0,2.13-1.72c.67-.71,1-1.08,1.37-1.15.66-.11,1.89.81,2.26,1.1l-.35.44a4.32,4.32,0,0,0-1.81-1,6.36,6.36,0,0,0-1.07,1,6.46,6.46,0,0,1-2.4,1.88"/><path class="cls-1" d="M91.08,19.62s-.51.07-.5.17-.38.27-.55.35,0,.45,0,.45h.5c.36.26.55.16.55.16a8.3,8.3,0,0,0,0,1.07A1.67,1.67,0,0,0,91.91,23a1,1,0,0,1,.26.2l-.27.67A7.6,7.6,0,0,1,91.64,25l-.59.92h.58l.54-1,.46-1.12.27.74.38.34.28,1h.5v-.42c-.06-.13-.35-.94-.35-.94l-.23-.42,0-.82a6.49,6.49,0,0,0,1.58,0,1.45,1.45,0,0,0,.49-.36s-.16.63,0,.84a1,1,0,0,1,.23.49,1.61,1.61,0,0,1-.18.74c0,.1-.05.91-.05.91H96s-.07-.86.3-1.19c.1-.11.08-.45.08-.45l0-.58s.5.53.5.73,0,1.24,0,1.24h.41a13.23,13.23,0,0,0,0-1.51,3.47,3.47,0,0,0-.59-.82l0-.56H97s.17-.87-.27-1.14c-.29-.18-.31-.46-1-.55s-1.83.45-2.76.45-1-.87-1.15-1.32c0-.13-.17-.21-.19-.32a.53.53,0,0,1,.1-.53c.25-.31.09-.48-.06-.58-.06.1-.42.53-.48.59,0-.37-.46-.65-.46-.65l.28.94"/><rect class="cls-1" x="92.44" y="27.04" width="1.24" height="0.49" transform="translate(-0.09 0.3) rotate(-0.18)"/><rect class="cls-1" x="90.36" y="27.81" width="1.24" height="0.49"/><polygon class="cls-1" points="90.03 29.73 88.78 29.74 88.78 29.25 90.02 29.25 90.03 29.73"/><polygon class="cls-1" points="94.94 28.6 93.69 28.61 93.69 28.12 94.93 28.12 94.94 28.6"/><polygon class="cls-1" points="93.5 29.73 92.25 29.73 92.25 29.25 93.5 29.24 93.5 29.73"/><polygon class="cls-1" points="87.04 28.03 85.8 28.04 85.8 27.54 87.03 27.54 87.04 28.03"/><polygon class="cls-1" points="88.45 29.01 87.2 29.01 87.2 28.52 88.45 28.52 88.45 29.01"/><rect class="cls-1" x="84.87" y="29.26" width="1.25" height="0.49"/><rect class="cls-1" x="90.39" y="30.39" width="1.25" height="0.49"/><polygon class="cls-1" points="88.49 30.89 87.24 30.89 87.24 30.41 88.48 30.4 88.49 30.89"/><polygon class="cls-1" points="89.85 27.53 88.6 27.53 88.6 27.05 89.85 27.04 89.85 27.53"/><rect class="cls-1" x="83.46" y="27.06" width="1.25" height="0.49"/><path class="cls-1" d="M87.53,40.59l-.31-.38c.21-.17.21-.26.21-.27s-.23-.23-.36-.33-.52-.34-.46-.63.43-.43.88-.52a7.37,7.37,0,0,0,1.44-.41c.28-.11.44-.25.44-.35s-.57-.61-1-.75c-1-.3-1.71-.91-1.78-1.61a.85.85,0,0,1,.16-.61,1.35,1.35,0,0,1,1-.27h.14a1.62,1.62,0,0,1,.88.29.93.93,0,0,0,.66.21,1.81,1.81,0,0,0,.58-.27,1,1,0,0,1,.87-.23,1.39,1.39,0,0,1,1,1.45c-.07.76-1.44,1.16-2.19,1.32a.77.77,0,0,1,.16.44c0,.35-.23.63-.73.83a7.43,7.43,0,0,1-1.54.44,3.13,3.13,0,0,0-.46.11l.22.15c.25.17.57.37.59.71a.85.85,0,0,1-.4.68M87.9,35h-.16c-.25,0-.54,0-.62.11a.31.31,0,0,0,0,.24c0,.47.61,1,1.43,1.19a2.73,2.73,0,0,1,.71.33c.87-.14,2.13-.55,2.17-1s-.25-.76-.71-.94c-.09,0-.24.07-.42.18a2,2,0,0,1-.76.34,1.4,1.4,0,0,1-1-.26,1.28,1.28,0,0,0-.6-.23"/><path class="cls-1" d="M88.23,36.91l-.46-.07a2.81,2.81,0,0,1-1.38-.41,1.38,1.38,0,0,1-.56-1.67c.34-.79,1.93-.39,2.24-.3l-.13.46c-.6-.15-1.53-.25-1.65,0A.87.87,0,0,0,86.67,36a2.27,2.27,0,0,0,1.15.33l.52.08-.11.48"/><path class="cls-1" d="M91.86,35.94l-.4-.29A1.63,1.63,0,0,0,91,34.23c-.26-.22-.78-.07-1,.2a5.74,5.74,0,0,1-1.06.81l-.25-.42a7.07,7.07,0,0,0,.95-.72,1.32,1.32,0,0,1,1.72-.24,2,2,0,0,1,.57,2.08"/><path class="cls-1" d="M85.13,40.13l0-.49c.64,0,.74-.16.74-.16a1.73,1.73,0,0,0-.12-.2l-.09-.12a.83.83,0,0,1-.19-.78c.14-.31.58-.53,1.46-.68,1.28-.2,1.34-.48,1.34-.5s-.17-.26-.33-.36l.23-.43c.07,0,.67.4.59.88s-.63.72-1.76.9c-.94.16-1.07.35-1.08.39s.08.2.14.29l.09.13a.69.69,0,0,1,.16.69c-.13.26-.48.4-1.14.44"/><path class="cls-1" d="M89.89,37.16l-.32-.37a4.37,4.37,0,0,0,1-1.09c0-.08,0-.12,0-.14a1.19,1.19,0,0,0-.7-.3l.06-.49c.14,0,.83.13,1.06.55a.63.63,0,0,1,0,.58,5.23,5.23,0,0,1-1.14,1.26"/><path class="cls-1" d="M93.82,40.29l-.48-.08a.63.63,0,0,0,0-.44c-.08-.09-.31-.09-.53-.09a1.24,1.24,0,0,1-.84-.23,1.13,1.13,0,0,1-.24-1c0-.22,0-.35,0-.41a.79.79,0,0,0-.51-.17,1.82,1.82,0,0,1-.86-.22c-.15-.08-.5-.27-.44-.56s.23-.31.41-.34l.06.43,0-.18,0,.18h0a.17.17,0,0,0,0-.09s0,0,.21.14a1.54,1.54,0,0,0,.66.17,1.24,1.24,0,0,1,.81.29.91.91,0,0,1,.18.83c0,.28-.05.46.1.61a.92.92,0,0,0,.49.08,1.15,1.15,0,0,1,.9.28,1,1,0,0,1,.15.83"/><path class="cls-1" d="M94.76,39.41a.95.95,0,0,0-1.12-.7,2.16,2.16,0,0,1-1.94-.58l.37-.33-.18.16.18-.16a1.67,1.67,0,0,0,1.48.43,1.43,1.43,0,0,1,1.1.22,1.49,1.49,0,0,1,.6.89l-.49.07"/><path class="cls-1" d="M102.16,3.28c0,.48-.11,1-.16,1.43a4.94,4.94,0,0,0,.12.94.9.9,0,0,1-.25-.06,2.24,2.24,0,0,0-.34-.11,3.06,3.06,0,0,0-.41-.1,3.56,3.56,0,0,0-.44.06,3,3,0,0,1-.42,0,.67.67,0,0,1-.3-.06,1.64,1.64,0,0,1-.24-.21,3.15,3.15,0,0,0,.11.55,1.49,1.49,0,0,0,.28.46,2.65,2.65,0,0,0,.56.36,2.41,2.41,0,0,0,.57.25,2.68,2.68,0,0,0,.67.11,2.55,2.55,0,0,0,.48,0c.06,0,.13-.07.19-.07s.12,0,.16.08A12,12,0,0,1,103,8.16c-.19-.05-.52-.31-.71-.36s-.31-.08-.46-.12l-.48-.09a1.26,1.26,0,0,1-.33,0,1.09,1.09,0,0,1-.23-.14c-.06-.07-.1-.15-.14-.19,0,.15,0,.26,0,.37a1.86,1.86,0,0,0,.06.34,3.13,3.13,0,0,0,.19.54,1.8,1.8,0,0,0,.38.44,6.26,6.26,0,0,0,.66.49,5.51,5.51,0,0,0,.67.38,4.3,4.3,0,0,0,.58.18c.18,0,.35,0,.53.08a2.57,2.57,0,0,1,.25.75c.1.59.17,1.59.24,1.63s.17.25.22.19.09,0,.09-.06-.07-.34-.07-.43a7.57,7.57,0,0,0-.13-1.65,3,3,0,0,1-.15-.69,1.42,1.42,0,0,1,.08-.41c0-.18.13-.35.18-.52a10.61,10.61,0,0,0,.17-1.15c0-.34,0-.69,0-1a5.2,5.2,0,0,0-.06-.68,2.62,2.62,0,0,0-.18-.56A2.78,2.78,0,0,0,104.2,5c-.09-.11-.18-.19-.26-.28a1.27,1.27,0,0,1,0,.34,2.05,2.05,0,0,1-.06.49c-.08.25-.2.46-.29.7s-.13.45-.18.7a3.11,3.11,0,0,0-.08.44c0,.08,0,.16,0,.23a2,2,0,0,1-.1-.26c-.07-.3-.12-.59-.16-.88a5.39,5.39,0,0,1,0-.69c0-.37,0-.74,0-1.1a3.3,3.3,0,0,0-.34-1.42,2.59,2.59,0,0,0-.32-.47,1.34,1.34,0,0,0-.31-.22,1,1,0,0,1,.07.25,1.94,1.94,0,0,1,0,.41"/><path class="cls-1" d="M103.37,11.29l-.5-.29c-.15-.07-.32-.1-.48-.18a1.12,1.12,0,0,1-.31-.27,2.5,2.5,0,0,1-.21-.35c0,.21-.05.39,0,.57a2.54,2.54,0,0,0,.1.68,3.94,3.94,0,0,0,.44.84,2.54,2.54,0,0,0,1.27,1c.31.09.7-.14.82,0a3.68,3.68,0,0,1,.14.83c0,.25.06.55.08.82,0,.12,0,.78,0,1.19a5.09,5.09,0,0,0-.32-.54A3.56,3.56,0,0,0,104,15c-.24-.23-.49-.42-.72-.65a1.66,1.66,0,0,1-.38-.41c0-.15-.11-.3-.17-.45a3.06,3.06,0,0,0-.12.57,3.33,3.33,0,0,0,0,.89,4.22,4.22,0,0,0,.3,1,4.7,4.7,0,0,0,.6,1,4.89,4.89,0,0,0,.58.62,4.71,4.71,0,0,0,.42.36c0,.06.12.09.13.16a1.33,1.33,0,0,1,0,.4c0,.2-.31,1.7-.31,1.9a.33.33,0,0,0,.08.22.14.14,0,0,0,.15.05.26.26,0,0,0,.12-.13.94.94,0,0,0,.08-.34c0-.23.3-1.77.34-2a1.11,1.11,0,0,1,0-.3,1.29,1.29,0,0,1,.19-.21,4,4,0,0,0,.37-.45,7,7,0,0,0,.9-2,3.4,3.4,0,0,0,.16-.77,4.91,4.91,0,0,0-.07-.86,5.36,5.36,0,0,0-.14-.54,2.15,2.15,0,0,1-.11.36,1.81,1.81,0,0,1-.2.33c-.08.11-.16.2-.24.3s-.26.34-.39.49-.25.29-.37.42-.18.21-.23.2c0-.36,0-.55,0-.73s-.09-1-.1-1.16.35-.1.58-.41a12,12,0,0,0,.39-1.2,6.74,6.74,0,0,0,.17-1,4.71,4.71,0,0,0,0-1,3.3,3.3,0,0,0-.2-.63c-.07-.15-.15-.29-.22-.44a2.72,2.72,0,0,1-.07.33,4.27,4.27,0,0,1-.18.54c-.11.25-.26.46-.37.71a7.69,7.69,0,0,0-.38.94c-.05.16-.11.32-.15.48s0,.62,0,.82c-.17-.19-.41-.61-.59-.78a3.94,3.94,0,0,0-.53-.38"/><path class="cls-1" d="M105.62,19.07a4.37,4.37,0,0,0-.42.44,3.88,3.88,0,0,0-.32.47c-.09.16-.19.34-.29.49,0-.16,0-.3-.07-.44a4.94,4.94,0,0,0-.15-.55,5,5,0,0,0-.33-.6c-.13-.22-.27-.44-.42-.65s-.27-.32-.39-.51a1.22,1.22,0,0,1-.18-.4,1.42,1.42,0,0,1,0-.41,3.7,3.7,0,0,0-.39,1.26,6.56,6.56,0,0,0,.63,2.63,11,11,0,0,1,.84,1.33,1,1,0,0,1,0,.34,6.54,6.54,0,0,1-.13.75c-.1.49-.58,1.6-.59,1.77a.45.45,0,0,0,.07.23.21.21,0,0,0,.19.07.35.35,0,0,0,.11-.2c.07-.2.41-1.11.57-1.69a5.43,5.43,0,0,0,.12-.77.48.48,0,0,1,0-.18.78.78,0,0,1,.19-.21c.18-.17.38-.27.55-.44a5,5,0,0,0,.68-.7,6.55,6.55,0,0,0,.58-1,4.8,4.8,0,0,0,.38-.83,3.34,3.34,0,0,0,.17-.91,7.34,7.34,0,0,0-.08-.82c-.09.16-.16.35-.26.49a4.32,4.32,0,0,1-.51.46l-.61.55"/><path class="cls-1" d="M106.33,23.34a1.66,1.66,0,0,1-.42.29c-.22.11-.45.15-.67.24a5,5,0,0,0-.71.32,2.43,2.43,0,0,0-.46.33,5.34,5.34,0,0,0-.43.5,2.57,2.57,0,0,0,.08-.4,1.86,1.86,0,0,0,0-.47,4,4,0,0,0-.16-.75,7.44,7.44,0,0,0-.28-.74A6.91,6.91,0,0,1,103,22a2.9,2.9,0,0,1-.08-.61,3.44,3.44,0,0,1,0-.45,2,2,0,0,0-.57.76,6.25,6.25,0,0,0-.23,2,7.85,7.85,0,0,0,.3,1.87,5,5,0,0,1,.24.84.79.79,0,0,1-.08.31c-.1.25-.75,1.54-.87,1.78a1.61,1.61,0,0,0-.12.39c0,.08.07,0,.12.05a.12.12,0,0,0,.16,0,.91.91,0,0,0,.22-.31c.11-.17.69-1.47.8-1.65s0-.11.08-.14.27-.44.35-.44a2.12,2.12,0,0,0,1.52-.39,5.8,5.8,0,0,0,1.28-1.41,3.73,3.73,0,0,0,.27-.64c.07-.26.09-.61.14-.91a2.09,2.09,0,0,1-.24.28"/><path class="cls-1" d="M104.38,29.09a3.37,3.37,0,0,0,.34-.59c.1-.2.17-.43.26-.66a3.73,3.73,0,0,1-.37.23.92.92,0,0,1-.36.05c-.25,0-.49,0-.74,0a5.52,5.52,0,0,0-.71.1,1.49,1.49,0,0,0-.47.13,3.18,3.18,0,0,0-.46.34c0-.13-.22.13-.18,0a6.17,6.17,0,0,0,.36-1.24,3.83,3.83,0,0,0,0-.76c0-.35-.09-.7-.13-1a4.25,4.25,0,0,1-.08-.61,4,4,0,0,1,.1-.6,3.91,3.91,0,0,0-.48.35,1.85,1.85,0,0,0-.36.57,5.44,5.44,0,0,0-.33,1.06,8.35,8.35,0,0,0-.18,1.22,2.16,2.16,0,0,0,.11,1c.1.29.29.18.33.48s-.15.22-.19.85a1.25,1.25,0,0,1-.14.45c-.1.14-1,1.26-1,1.34s.13.12.17.16.24-.21.41-.38a6.07,6.07,0,0,1,.39-.48c.15-.15.28-.36.44-.49a2.25,2.25,0,0,1,.43-.23,5,5,0,0,1,.53-.12,2.58,2.58,0,0,0,1.06-.26,6.6,6.6,0,0,0,.64-.36,3.91,3.91,0,0,0,.67-.56"/><path class="cls-1" d="M97.84,34.12c0,.07,0,0,.07.05s.07.1.1.09a1.08,1.08,0,0,0,.3-.21,3.14,3.14,0,0,1,.51-.39,1,1,0,0,1,.44-.14,2.26,2.26,0,0,1,.52,0c.18,0,.36,0,.53,0a5.21,5.21,0,0,0,.55-.08,4,4,0,0,0,.67-.22,3.28,3.28,0,0,0,.71-.43,2.24,2.24,0,0,0,.41-.5,6.08,6.08,0,0,0,.33-.62c-.13,0-.24.13-.38.17a2.11,2.11,0,0,1-.36,0c-.25,0-.48-.1-.73-.13s-.47,0-.71,0a1.25,1.25,0,0,0-.47,0,2.45,2.45,0,0,0-.49.24c0-.12-.09-.15-.06-.29s.34-.62.39-.9.07-.52.08-.77,0-.7,0-1.07a3.11,3.11,0,0,1,0-.61,2.87,2.87,0,0,1,.17-.59,3.44,3.44,0,0,0-.51.25,1.75,1.75,0,0,0-.43.5,2.08,2.08,0,0,0-.39.93c-.07.55,0,.86,0,1.26s-.49.67-.52,1,0,.61,0,.93a3.9,3.9,0,0,1,0,.9c-.11.12-.7.54-.7.6"/><path class="cls-1" d="M87.25,19.63s.53.07.51.16.37.27.54.36,0,.44,0,.44h-.5c-.36.26-.55.17-.55.17a7.56,7.56,0,0,1,0,1.06A1.68,1.68,0,0,1,86.44,23a.9.9,0,0,0-.25.19l.27.67A6.62,6.62,0,0,0,86.73,25l.59.92h-.58l-.54-1-.47-1.12-.26.74-.38.34-.28,1h-.5v-.42l.35-.95.22-.42,0-.81a6.57,6.57,0,0,1-1.59,0,1.47,1.47,0,0,1-.48-.36s.16.63,0,.84a1.15,1.15,0,0,0-.25.49,1.59,1.59,0,0,0,.2.74c0,.1.06.91.06.91h-.46s.06-.86-.31-1.19a.91.91,0,0,1-.09-.45l0-.59s-.49.55-.49.74,0,1.26,0,1.26H81a13,13,0,0,1,0-1.52,3.41,3.41,0,0,1,.59-.82l0-.55h-.29s-.17-.88.27-1.16c.28-.18.3-.45,1-.55s1.83.45,2.76.44,1-.88,1.14-1.33c0-.12.18-.21.2-.33a.52.52,0,0,0-.1-.51c-.25-.32-.1-.49,0-.59.07.1.44.53.5.59,0-.37.45-.65.45-.65l-.28.94"/><path class="cls-1" d="M90,37.32l-.11-.53c7.35-1.55,8.82-4,8.83-4.07l.48.28c-.06.11-1.6,2.73-9.2,4.32"/><path class="cls-1" d="M88.64,37.33c-7.62-1.55-9.17-4.17-9.23-4.28l.48-.28-.24.15.24-.15s1.55,2.53,8.86,4l-.11.54"/><path class="cls-1" d="M76.4,3.35c0,.48.11.95.16,1.43a4.25,4.25,0,0,1-.12.94.68.68,0,0,0,.26-.07,2.07,2.07,0,0,1,.33-.1,2.13,2.13,0,0,1,.42-.1,2.1,2.1,0,0,1,.43,0,3,3,0,0,0,.43,0,.57.57,0,0,0,.3-.07,1.17,1.17,0,0,0,.24-.21,2.31,2.31,0,0,1-.12.56,1.3,1.3,0,0,1-.27.46,2.6,2.6,0,0,1-.55.36,2.42,2.42,0,0,1-.58.25,2.7,2.7,0,0,1-.67.12,1.94,1.94,0,0,1-.48,0C76.12,7,76.05,7,76,7s-.13,0-.16.08a11.74,11.74,0,0,0-.29,1.2c.19-.05.52-.31.71-.37l.46-.1a4.4,4.4,0,0,1,.47-.1,1.28,1.28,0,0,0,.33-.06.61.61,0,0,0,.24-.15s.09-.14.14-.18c0,.15,0,.26,0,.36a2.09,2.09,0,0,1-.07.36,2.52,2.52,0,0,1-.17.53,2.14,2.14,0,0,1-.39.45,7.37,7.37,0,0,1-.65.49,3.48,3.48,0,0,1-.68.38,2.51,2.51,0,0,1-.57.18c-.18,0-.34.05-.54.08a4.29,4.29,0,0,0-.24.75,15.49,15.49,0,0,1-.23,1.65s-.17.24-.21.19-.09,0-.09-.07.07-.34.07-.42a8,8,0,0,1,.11-1.66,3,3,0,0,0,.15-.69,2,2,0,0,0-.08-.41c0-.18-.14-.34-.18-.52a8.61,8.61,0,0,1-.18-1.15,7,7,0,0,1,0-1,3.94,3.94,0,0,1,0-.69,2.69,2.69,0,0,1,.17-.55,2.21,2.21,0,0,1,.26-.39c.08-.1.17-.19.25-.28a1,1,0,0,0,0,.34,2.05,2.05,0,0,0,.06.49c.07.25.2.45.28.71s.14.45.21.68,0,.3.07.46l0,.22a1.25,1.25,0,0,0,.1-.27c.07-.29.12-.59.16-.88a5.23,5.23,0,0,0,0-.68c0-.37,0-.74,0-1.11a3.23,3.23,0,0,1,.33-1.41,2,2,0,0,1,.32-.47,1.76,1.76,0,0,1,.3-.24c0,.1-.05.17-.06.26a1.93,1.93,0,0,0,0,.41"/><path class="cls-1" d="M75.22,11.37a3.6,3.6,0,0,1,.5-.29,3.26,3.26,0,0,0,.48-.2.88.88,0,0,0,.32-.26,2.9,2.9,0,0,0,.19-.34,3.51,3.51,0,0,1,.05.55,2.61,2.61,0,0,1-.09.69,3.74,3.74,0,0,1-.44.84,2.62,2.62,0,0,1-1.26,1c-.32.09-.7-.14-.82,0a3.68,3.68,0,0,0-.14.83c0,.25-.06.56-.07.82s0,.79,0,1.2a5.79,5.79,0,0,1,.31-.54,4.7,4.7,0,0,1,.44-.54c.23-.23.48-.41.71-.65a2.13,2.13,0,0,0,.38-.41c.06-.15.1-.31.17-.45a3.63,3.63,0,0,1,.13.57,2.9,2.9,0,0,1,0,.88,4.06,4.06,0,0,1-.28,1,5,5,0,0,1-.6,1,4.3,4.3,0,0,1-.58.62c-.13.14-.27.24-.41.37s-.12.09-.15.16a1.3,1.3,0,0,0,0,.4c0,.19.32,1.69.32,1.89a.38.38,0,0,1-.08.23.15.15,0,0,1-.14,0,.22.22,0,0,1-.14-.13,1.28,1.28,0,0,1-.07-.34c0-.22-.31-1.76-.35-2a1.37,1.37,0,0,0,0-.28,2.36,2.36,0,0,0-.2-.23,4.29,4.29,0,0,1-.38-.45,7.75,7.75,0,0,1-.5-.9,7.3,7.3,0,0,1-.4-1.07,3.11,3.11,0,0,1-.16-.77,6.25,6.25,0,0,1,.06-.87c0-.18.1-.35.14-.54,0,.12.06.25.1.36a2.08,2.08,0,0,0,.21.33c.08.11.16.2.24.3l.39.49a5,5,0,0,0,.38.41c0,.06.17.21.23.2,0-.35,0-.55,0-.72s.08-1,.1-1.17c-.15-.22-.35-.1-.58-.4a9.93,9.93,0,0,1-.4-1.2,8.75,8.75,0,0,1-.18-1,4.69,4.69,0,0,1,0-1,3.09,3.09,0,0,1,.2-.63,4.51,4.51,0,0,1,.22-.44,1.86,1.86,0,0,0,.06.34,4.14,4.14,0,0,0,.19.53c.11.24.26.46.38.7s.26.63.38.94c.06.16.1.33.15.49s0,.61,0,.82c.17-.2.41-.62.58-.79a3.7,3.7,0,0,1,.53-.38"/><path class="cls-1" d="M73,19.16a2.94,2.94,0,0,1,.42.44,3.76,3.76,0,0,1,.32.46c.09.17.19.34.29.49a4,4,0,0,1,.09-.43,3.16,3.16,0,0,1,.13-.55,5.86,5.86,0,0,1,.32-.61c.13-.22.27-.44.41-.65s.28-.33.4-.51a1.73,1.73,0,0,0,.18-.39,2.13,2.13,0,0,0,0-.42A3.8,3.8,0,0,1,76,18.24a6.4,6.4,0,0,1-.62,2.65,11.26,11.26,0,0,0-.83,1.32.78.78,0,0,0,0,.34,6.18,6.18,0,0,0,.13.75c.1.49.59,1.59.6,1.76a.33.33,0,0,1-.07.23c-.05.06-.13.11-.19.07s-.08-.11-.11-.19-.42-1.1-.58-1.69a7.73,7.73,0,0,1-.13-.77.41.41,0,0,0,0-.19,1.26,1.26,0,0,0-.2-.2c-.18-.16-.38-.27-.54-.44a5.53,5.53,0,0,1-.69-.68,8,8,0,0,1-.59-1,6.21,6.21,0,0,1-.39-.82,3.94,3.94,0,0,1-.17-.92,5.43,5.43,0,0,1,.09-.81,2.77,2.77,0,0,0,.26.48,3.59,3.59,0,0,0,.5.46c.2.19.42.36.62.55"/><path class="cls-1" d="M72.33,23.43a2,2,0,0,0,.42.3c.22.09.46.14.67.22a5.1,5.1,0,0,1,.72.32,2,2,0,0,1,.46.34,4.18,4.18,0,0,1,.43.49c0-.13-.07-.26-.09-.4a1.86,1.86,0,0,1,0-.47,3.85,3.85,0,0,1,.16-.75,5.24,5.24,0,0,1,.27-.73,6.65,6.65,0,0,0,.28-.69,2.51,2.51,0,0,0,.08-.62,2.32,2.32,0,0,0-.06-.45,2,2,0,0,1,.58.76,6,6,0,0,1,.24,2,7.68,7.68,0,0,1-.29,1.86,5.67,5.67,0,0,0-.23.85,1.14,1.14,0,0,0,.07.32c.11.24.77,1.53.89,1.76a3.56,3.56,0,0,1,.13.39c0,.08-.08,0-.12.06a.14.14,0,0,1-.17,0,1.17,1.17,0,0,1-.22-.3c-.11-.18-.7-1.47-.8-1.65s-.05-.13-.09-.15-.27-.43-.35-.43a2.16,2.16,0,0,1-1.52-.38,5.73,5.73,0,0,1-1.28-1.4,2.9,2.9,0,0,1-.28-.65c-.08-.26-.09-.61-.15-.9a2.91,2.91,0,0,0,.24.27"/><path class="cls-1" d="M74.31,29.16a2.61,2.61,0,0,1-.34-.57,6.66,6.66,0,0,1-.26-.67c.12.07.24.18.37.24a1.11,1.11,0,0,0,.36,0c.25,0,.49,0,.74,0a5.51,5.51,0,0,1,.71.09,1.57,1.57,0,0,1,.47.13,2.8,2.8,0,0,1,.45.34c0-.13.24.13.19,0a7.31,7.31,0,0,1-.37-1.23,6.47,6.47,0,0,1,0-.77c0-.35.09-.7.13-1a4.39,4.39,0,0,0,.07-.61,4,4,0,0,0-.1-.6,2.55,2.55,0,0,1,.48.35,2.18,2.18,0,0,1,.37.56,6.06,6.06,0,0,1,.33,1.07,8,8,0,0,1,.19,1.21,2.35,2.35,0,0,1-.11,1c-.1.27-.29.17-.33.47s.15.22.21.86a1,1,0,0,0,.14.44c.09.14,1,1.26,1,1.34s-.12.12-.16.15-.24-.21-.41-.37a4.34,4.34,0,0,0-.4-.47,5.35,5.35,0,0,0-.45-.5,1.54,1.54,0,0,0-.42-.22,2.5,2.5,0,0,0-.53-.11c-.17,0-.35,0-.53-.07a2.66,2.66,0,0,1-.53-.21,4.83,4.83,0,0,1-.64-.33,4.1,4.1,0,0,1-.68-.58"/><path class="cls-1" d="M80.88,34.17c0,.06,0,0-.07,0s-.06.1-.1.09a1.48,1.48,0,0,1-.3-.21,4.61,4.61,0,0,0-.5-.4,1.22,1.22,0,0,0-.45-.13,3,3,0,0,0-.52,0c-.18,0-.36,0-.53,0a4.85,4.85,0,0,1-.55-.08,3.66,3.66,0,0,1-1.39-.64,3.47,3.47,0,0,1-.42-.5c-.12-.19-.21-.4-.33-.61.13,0,.25.13.39.16a1.08,1.08,0,0,0,.36,0c.25,0,.48-.09.73-.12s.47-.05.71-.06a1.52,1.52,0,0,1,.47,0,2.38,2.38,0,0,1,.49.23c-.05-.11.09-.15,0-.29a8.1,8.1,0,0,1-.38-.9c0-.25-.07-.51-.09-.76s0-.7,0-1.06a4.42,4.42,0,0,0,0-.63,3.89,3.89,0,0,0-.18-.58,2.81,2.81,0,0,1,.52.26,1.68,1.68,0,0,1,.43.48,2.22,2.22,0,0,1,.4.93c.07.57-.06.85,0,1.26s.49.67.54,1,0,.61,0,.92a4.57,4.57,0,0,0,0,.91,8.62,8.62,0,0,1,.7.6"/><path class="cls-1" d="M79.06,2.72S76,3.08,76.87,5c.43.24,1.09-.22,1.36-.82a10.53,10.53,0,0,1,.83-1.45"/><path class="cls-1" d="M99.27,2.72s3.06.36,2.19,2.27c-.44.24-1.1-.22-1.36-.82a11.77,11.77,0,0,0-.83-1.45"/><path class="cls-1" d="M203,23.35a.54.54,0,0,1,.14-.35.38.38,0,0,1,.29-.18c.08,0,.17.06.29.18l.4.42a1.85,1.85,0,0,0,.68.41,3,3,0,0,0,1.09.18,2.26,2.26,0,0,0,1.58-.51A1.86,1.86,0,0,0,208,22a2.18,2.18,0,0,0-.26-1.1,1.93,1.93,0,0,0-.69-.7,5.63,5.63,0,0,0-.92-.46l-1-.4a4.53,4.53,0,0,1-.93-.49,2,2,0,0,1-.67-.78,2.58,2.58,0,0,1-.27-1.22,2.73,2.73,0,0,1,.28-1.29,2,2,0,0,1,.75-.82,3.83,3.83,0,0,1,1-.4,4.44,4.44,0,0,1,1-.12,5.17,5.17,0,0,1,1.64.25c.52.17.77.38.77.63a.64.64,0,0,1-.12.35.35.35,0,0,1-.3.18,1.26,1.26,0,0,1-.33-.13,3.67,3.67,0,0,0-.68-.27,3.37,3.37,0,0,0-1-.13,2.72,2.72,0,0,0-1.49.38,1.41,1.41,0,0,0-.59,1.28,1.54,1.54,0,0,0,.35,1,1.93,1.93,0,0,0,.88.6c.36.13.74.28,1.15.45a9.47,9.47,0,0,1,1.15.56,2.23,2.23,0,0,1,.89.93,3.25,3.25,0,0,1,.35,1.57,2.81,2.81,0,0,1-.82,2.21,3.19,3.19,0,0,1-2.21.74,3.81,3.81,0,0,1-2.1-.54c-.57-.35-.85-.69-.85-1"/><path class="cls-1" d="M209.36,24.39a.22.22,0,0,1,0-.1l3-9.77c.07-.22.25-.33.56-.33a.53.53,0,0,1,.57.34l3,9.78v0a.08.08,0,0,1,0,0,.33.33,0,0,1-.19.28.68.68,0,0,1-.38.12.33.33,0,0,1-.36-.25l-.66-2.21h-4l-.66,2.22c0,.16-.17.24-.38.24a.68.68,0,0,1-.38-.12.33.33,0,0,1-.17-.28m1.84-2.88h3.48L213,15.7Z"/><path class="cls-1" d="M217.44,24.41V14.64c0-.24.16-.36.47-.36s.52.22.75.66l3.88,7.65v-8c0-.22.16-.34.48-.34s.47.12.47.34v9.79a.31.31,0,0,1-.14.28.56.56,0,0,1-.33.1c-.24,0-.45-.18-.63-.55l-4-7.77v7.94a.34.34,0,0,1-.14.28.57.57,0,0,1-.34.1.52.52,0,0,1-.33-.1.34.34,0,0,1-.14-.28"/><path class="cls-1" d="M227.6,24.41V14.62c0-.22.16-.34.48-.34s.47.12.47.34v9.29h4.1c.21,0,.32.15.32.43s-.11.45-.32.45H228a.48.48,0,0,1-.31-.1.36.36,0,0,1-.13-.28"/><path class="cls-1" d="M233.49,21.8V14.62c0-.23.15-.34.47-.34s.47.11.47.34V21.8a2.25,2.25,0,0,0,.54,1.64,2.38,2.38,0,0,0,3.07,0,2.25,2.25,0,0,0,.53-1.64V14.62c0-.23.16-.34.48-.34s.47.11.47.34V21.8a3,3,0,0,1-.82,2.34,3.67,3.67,0,0,1-4.39,0,3,3,0,0,1-.82-2.34"/><path class="cls-1" d="M241.19,24.41V14.62c0-.22.16-.34.48-.34s.47.12.47.34v9.79a.34.34,0,0,1-.14.28.56.56,0,0,1-.33.1.53.53,0,0,1-.34-.1.34.34,0,0,1-.14-.28"/><path class="cls-1" d="M243.28,23.35a.59.59,0,0,1,.13-.35.38.38,0,0,1,.3-.18A.5.5,0,0,1,244,23l.4.42a1.85,1.85,0,0,0,.68.41,3,3,0,0,0,1.09.18,2.27,2.27,0,0,0,1.58-.51,1.9,1.9,0,0,0,.56-1.47,2.09,2.09,0,0,0-.27-1.1,1.91,1.91,0,0,0-.68-.7,6.07,6.07,0,0,0-.92-.46l-1-.4a4.71,4.71,0,0,1-.92-.49,2,2,0,0,1-.68-.78,2.58,2.58,0,0,1-.27-1.22,2.73,2.73,0,0,1,.29-1.29,1.87,1.87,0,0,1,.75-.82,3.83,3.83,0,0,1,1-.4,4.42,4.42,0,0,1,1-.12,5.19,5.19,0,0,1,1.65.25c.51.17.77.38.77.63a.64.64,0,0,1-.12.35.37.37,0,0,1-.3.18,1,1,0,0,1-.33-.13,3.67,3.67,0,0,0-.68-.27,3.41,3.41,0,0,0-1-.13,2.76,2.76,0,0,0-1.5.38,1.43,1.43,0,0,0-.59,1.28,1.55,1.55,0,0,0,.36,1,1.93,1.93,0,0,0,.88.6l1.15.45a10.25,10.25,0,0,1,1.15.56,2.15,2.15,0,0,1,.88.93,3.14,3.14,0,0,1,.36,1.57,2.85,2.85,0,0,1-.82,2.21,3.22,3.22,0,0,1-2.22.74,3.86,3.86,0,0,1-2.1-.54c-.56-.35-.84-.69-.84-1"/><path class="cls-1" d="M252.88,24.41V14.64c0-.24.16-.36.47-.36s.52.22.75.66L258,22.59v-8c0-.22.16-.34.48-.34s.47.12.47.34v9.79a.34.34,0,0,1-.14.28.56.56,0,0,1-.33.1c-.24,0-.45-.18-.63-.55l-4-7.77v7.94a.32.32,0,0,1-.15.28.59.59,0,0,1-.66,0,.31.31,0,0,1-.14-.28"/><path class="cls-1" d="M260.53,21.8V17.34a3,3,0,0,1,.81-2.32,3.58,3.58,0,0,1,4.36,0,3,3,0,0,1,.81,2.32V21.8a3,3,0,0,1-.81,2.34,3.62,3.62,0,0,1-4.36,0,3,3,0,0,1-.81-2.34m1,0c0,1.47.68,2.2,2,2.2s2-.73,2-2.2V17.34c0-1.45-.68-2.19-2-2.19s-2,.74-2,2.19Z"/><path class="cls-1" d="M267.53,23.35a.54.54,0,0,1,.14-.35.38.38,0,0,1,.29-.18c.08,0,.17.06.29.18l.4.42a1.85,1.85,0,0,0,.68.41,3.08,3.08,0,0,0,1.09.18A2.26,2.26,0,0,0,272,23.5a1.9,1.9,0,0,0,.56-1.47,2.18,2.18,0,0,0-.26-1.1,1.93,1.93,0,0,0-.69-.7,5.63,5.63,0,0,0-.92-.46l-1-.4a4.53,4.53,0,0,1-.93-.49,2.09,2.09,0,0,1-.68-.78,3.05,3.05,0,0,1,0-2.51,2,2,0,0,1,.75-.82,3.83,3.83,0,0,1,1-.4,4.44,4.44,0,0,1,1-.12,5.17,5.17,0,0,1,1.64.25c.51.17.77.38.77.63a.64.64,0,0,1-.12.35.35.35,0,0,1-.3.18,1.26,1.26,0,0,1-.33-.13,3.67,3.67,0,0,0-.68-.27,3.37,3.37,0,0,0-1-.13,2.72,2.72,0,0,0-1.49.38,1.41,1.41,0,0,0-.59,1.28,1.54,1.54,0,0,0,.35,1,1.93,1.93,0,0,0,.88.6c.36.13.74.28,1.15.45a9.47,9.47,0,0,1,1.15.56,2.23,2.23,0,0,1,.89.93,3.25,3.25,0,0,1,.35,1.57,2.81,2.81,0,0,1-.82,2.21,3.19,3.19,0,0,1-2.21.74,3.81,3.81,0,0,1-2.1-.54c-.57-.35-.85-.69-.85-1"/><path class="cls-1" d="M277.09,21.8V14.62c0-.23.16-.34.48-.34s.47.11.47.34V21.8a2.25,2.25,0,0,0,.54,1.64,2.37,2.37,0,0,0,3.06,0,2.25,2.25,0,0,0,.54-1.64V14.62c0-.23.16-.34.47-.34s.48.11.48.34V21.8a3,3,0,0,1-.83,2.34,3.65,3.65,0,0,1-4.38,0,3,3,0,0,1-.83-2.34"/><path class="cls-1" d="M284.8,24.41V14.64c0-.24.15-.36.47-.36s.52.22.75.66l3.88,7.65v-8c0-.22.16-.34.47-.34s.48.12.48.34v9.79a.34.34,0,0,1-.14.28.57.57,0,0,1-.34.1c-.24,0-.45-.18-.63-.55l-4-7.77v7.94a.32.32,0,0,1-.15.28.52.52,0,0,1-.33.1.55.55,0,0,1-.34-.1.33.33,0,0,1-.13-.28"/><path class="cls-1" d="M292.56,24.41V14.64a.31.31,0,0,1,.13-.27.53.53,0,0,1,.3-.09h5.12c.24,0,.36.14.36.41a.52.52,0,0,1-.1.33.29.29,0,0,1-.26.13h-4.6v4h2.26a.31.31,0,0,1,.26.12.52.52,0,0,1,.09.31c0,.26-.11.39-.35.39h-2.26v4h4.6a.35.35,0,0,1,.26.13.55.55,0,0,1,.1.32c0,.28-.12.43-.36.43H293a.47.47,0,0,1-.3-.1.33.33,0,0,1-.13-.28"/><path class="cls-1" d="M65.36,40.08a.42.42,0,0,1-.42-.42V.42A.42.42,0,0,1,65.36,0a.42.42,0,0,1,.42.42V39.66a.42.42,0,0,1-.42.42"/><path class="cls-1" d="M3,11.62a.31.31,0,0,1-.28.19.31.31,0,0,1-.26-.19L1.18,9.15v4.53c0,.17-.18.26-.36.26s-.36-.09-.36-.26V8a.32.32,0,0,1,.36-.35c.26,0,.42.15.58.45l1.34,2.58L4.09,8.13c.16-.3.32-.45.58-.45A.33.33,0,0,1,5,8v5.65c0,.17-.18.26-.36.26s-.36-.09-.36-.26V9.19Z"/><path class="cls-1" d="M6.16,7.93c0-.17.18-.25.36-.25s.36.08.36.25v5.75c0,.17-.18.26-.36.26s-.36-.09-.36-.26Z"/><path class="cls-1" d="M11,13.61,8.72,9.31v4.37c0,.17-.17.26-.35.26S8,13.85,8,13.68V7.93c0-.18.17-.25.36-.25s.39.15.54.45L11,12.3V7.93c0-.17.18-.25.36-.25s.36.08.36.25v5.75c0,.17-.18.26-.36.26a.54.54,0,0,1-.45-.33"/><path class="cls-1" d="M12.89,7.93c0-.17.18-.25.36-.25s.36.08.36.25v5.75c0,.17-.18.26-.36.26s-.36-.09-.36-.26Z"/><path class="cls-1" d="M17.38,12.28c0-1.72-2.81-.94-2.81-3,0-1.26,1-1.6,1.88-1.6.61,0,1.5.18,1.5.57,0,.14-.11.39-.31.39s-.45-.32-1.19-.32-1.16.23-1.16.89c0,1.44,2.81.69,2.81,3A1.68,1.68,0,0,1,16.23,14c-1.11,0-1.82-.6-1.82-1,0-.17.16-.4.32-.4s.45.7,1.46.7c.72,0,1.19-.35,1.19-1.06"/><path class="cls-1" d="M22.19,7.68c.17,0,.26.16.26.33s-.09.34-.26.34H20.81v5.33c0,.17-.18.26-.36.26s-.36-.09-.36-.26V8.35H18.71c-.17,0-.26-.16-.26-.34s.08-.33.26-.33Z"/><path class="cls-1" d="M23.81,10.51h1.34a.3.3,0,0,1,0,.6H23.81v2.18h2.66c.15,0,.24.15.24.33s-.07.32-.24.32h-3c-.16,0-.33-.09-.33-.26V7.94c0-.17.17-.26.33-.26h3c.17,0,.24.16.24.32s-.09.33-.24.33H23.81Z"/><path class="cls-1" d="M27.41,7.93a.26.26,0,0,1,.26-.25h1.57c1,0,1.9.41,1.9,1.71a1.51,1.51,0,0,1-1.28,1.67l1.27,2.41a.27.27,0,0,1,0,.12.44.44,0,0,1-.42.37c-.15,0-.25-.14-.33-.29l-1.29-2.51h-1v2.52c0,.17-.18.26-.36.26s-.36-.09-.36-.26Zm.72.4v2.23h1.11c.71,0,1.18-.3,1.18-1.12S30,8.33,29.24,8.33Z"/><path class="cls-1" d="M32,7.93c0-.17.18-.25.36-.25s.36.08.36.25v5.75c0,.17-.18.26-.36.26s-.36-.09-.36-.26Z"/><path class="cls-1" d="M33.76,12.12V9.55A1.67,1.67,0,0,1,35.6,7.68a1.67,1.67,0,0,1,1.85,1.87v2.57A1.67,1.67,0,0,1,35.6,14a1.67,1.67,0,0,1-1.84-1.87m3-2.57c0-.83-.43-1.22-1.13-1.22s-1.12.39-1.12,1.22v2.57c0,.83.42,1.22,1.12,1.22s1.13-.39,1.13-1.22Z"/><path class="cls-1" d="M2.3,16.73a1.67,1.67,0,0,1,1.85,1.86v2.53A1.67,1.67,0,0,1,2.3,23H.79c-.2,0-.33-.12-.33-.24V17c0-.13.13-.25.33-.25Zm-1.12.65v4.95H2.3c.71,0,1.13-.38,1.13-1.21V18.59c0-.83-.42-1.21-1.13-1.21Z"/><path class="cls-1" d="M5.94,19.55H7.27a.28.28,0,0,1,.25.31.26.26,0,0,1-.25.29H5.94v2.18H8.59c.15,0,.25.16.25.34s-.08.31-.25.31h-3c-.16,0-.32-.08-.32-.25V17c0-.17.16-.25.32-.25H8.59c.17,0,.25.16.25.31s-.1.34-.25.34H5.94Z"/><path class="cls-1" d="M13,17.38c-.74,0-1.14.38-1.14,1.21v2.58c0,.83.4,1.21,1.17,1.21.95,0,1-.61,1.08-1,0-.18.15-.25.36-.25s.36.07.36.4c0,.85-.71,1.52-1.86,1.52a1.68,1.68,0,0,1-1.83-1.87V18.59a1.68,1.68,0,0,1,1.84-1.86c1.15,0,1.85.65,1.85,1.49,0,.32-.12.39-.36.39s-.35-.09-.36-.25c0-.34-.15-1-1.11-1"/><path class="cls-1" d="M15.63,17c0-.17.18-.24.36-.24s.36.07.36.24v5.76c0,.17-.18.25-.36.25s-.36-.08-.36-.25Z"/><path class="cls-1" d="M18.19,19.55h1.34a.28.28,0,0,1,.25.31.26.26,0,0,1-.25.29H18.19v2.18h2.66c.15,0,.25.16.25.34S21,23,20.85,23H17.8c-.16,0-.33-.08-.33-.25V17c0-.17.17-.25.33-.25h3.05c.17,0,.25.16.25.31s-.1.34-.25.34H18.19Z"/><path class="cls-1" d="M24.74,22.66l-2.23-4.31v4.38c0,.17-.18.25-.36.25s-.36-.08-.36-.25V17c0-.18.18-.24.36-.24s.4.15.55.45l2.13,4.17V17c0-.17.18-.24.36-.24s.36.07.36.24v5.76c0,.17-.18.25-.36.25a.53.53,0,0,1-.45-.32"/><path class="cls-1" d="M28.48,17.38c-.74,0-1.14.38-1.14,1.21v2.58c0,.83.4,1.21,1.16,1.21a1,1,0,0,0,1.09-1c0-.18.14-.25.36-.25s.36.07.36.4c0,.85-.71,1.52-1.86,1.52a1.68,1.68,0,0,1-1.83-1.87V18.59a1.68,1.68,0,0,1,1.84-1.86c1.15,0,1.85.65,1.85,1.49,0,.32-.12.39-.36.39s-.35-.09-.36-.25a1,1,0,0,0-1.11-1"/><path class="cls-1" d="M31.14,17c0-.17.18-.24.36-.24s.36.07.36.24v5.76c0,.17-.18.25-.36.25s-.36-.08-.36-.25Z"/><path class="cls-1" d="M32.53,22.68s0,0,0-.06l1.75-5.7a.43.43,0,0,1,.45-.24.44.44,0,0,1,.44.24l1.75,5.7s0,0,0,.06c0,.17-.24.3-.45.3a.25.25,0,0,1-.26-.16l-.37-1.27H33.61l-.38,1.27A.25.25,0,0,1,33,23c-.18,0-.43-.12-.43-.3M35.69,21l-.95-3.22-1,3.22Z"/><path class="cls-1" d="M1.83,29.61a.24.24,0,0,0,0-.09L0,26.22a.49.49,0,0,1,0-.15c0-.18.25-.3.43-.3s.19.06.25.19L2.19,28.9,3.69,26c.07-.13.14-.19.26-.19s.42.12.42.3a.31.31,0,0,1,0,.15l-1.77,3.3a.13.13,0,0,0,0,.09v2.16c0,.18-.18.26-.36.26s-.36-.08-.36-.26Z"/><path class="cls-1" d="M9.91,25.77c.17,0,.25.17.25.33s-.08.34-.25.34H8.53v5.33c0,.18-.18.26-.36.26s-.36-.08-.36-.26V26.44H6.42c-.16,0-.25-.16-.25-.34s.08-.33.25-.33Z"/><path class="cls-1" d="M11.53,28.6h1.34c.15,0,.24.15.24.31a.26.26,0,0,1-.24.29H11.53v2.18h2.65c.16,0,.25.16.25.34s-.07.31-.25.31h-3c-.17,0-.33-.08-.33-.25V26c0-.17.16-.26.33-.26h3c.18,0,.25.17.25.32s-.09.33-.25.33H11.53Z"/><path class="cls-1" d="M16.83,26.43c-.73,0-1.13.38-1.13,1.21v2.58c0,.83.4,1.21,1.16,1.21.95,0,1-.61,1.09-1,0-.17.14-.24.36-.24s.36.07.36.4c0,.85-.71,1.51-1.86,1.51A1.67,1.67,0,0,1,15,30.22V27.64a1.68,1.68,0,0,1,1.84-1.87c1.14,0,1.85.66,1.85,1.49,0,.33-.12.4-.36.4s-.35-.1-.36-.25a1,1,0,0,0-1.12-1"/><path class="cls-1" d="M22.45,31.71,20.22,27.4v4.37c0,.18-.18.26-.36.26s-.36-.08-.36-.26V26c0-.18.17-.25.36-.25s.4.16.55.46l2.13,4.17V26c0-.17.18-.25.36-.25s.36.08.36.25v5.75c0,.18-.18.26-.36.26a.53.53,0,0,1-.45-.32"/><path class="cls-1" d="M24.33,30.22V27.64a1.67,1.67,0,0,1,1.84-1.87A1.67,1.67,0,0,1,28,27.64v2.58a1.66,1.66,0,0,1-1.84,1.86,1.66,1.66,0,0,1-1.84-1.86m3-2.58c0-.83-.43-1.21-1.13-1.21S25,26.81,25,27.64v2.58c0,.83.42,1.21,1.13,1.21s1.13-.38,1.13-1.21Z"/><path class="cls-1" d="M29.41,32c-.16,0-.32-.08-.32-.26V26c0-.17.18-.25.36-.25s.36.08.36.25v5.36h2.33c.16,0,.24.16.24.33s-.08.32-.24.32Z"/><path class="cls-1" d="M32.84,30.22V27.64a1.67,1.67,0,0,1,1.84-1.87,1.68,1.68,0,0,1,1.85,1.87v2.58a1.67,1.67,0,0,1-1.85,1.86,1.66,1.66,0,0,1-1.84-1.86m3-2.58c0-.83-.43-1.21-1.13-1.21s-1.12.38-1.12,1.21v2.58c0,.83.41,1.21,1.12,1.21s1.13-.38,1.13-1.21Z"/><path class="cls-1" d="M39.38,26.43c-.7,0-1.12.38-1.12,1.21v2.58c0,.83.42,1.21,1.12,1.21s1.13-.38,1.13-1.21v-.88h-1a.27.27,0,0,1-.25-.3.28.28,0,0,1,.25-.3H41a.25.25,0,0,1,.25.27v1.21a1.85,1.85,0,1,1-3.69,0V27.64a1.67,1.67,0,0,1,1.82-1.87c1.12,0,1.87.63,1.87,1.54,0,.27-.13.35-.36.35s-.35-.07-.36-.25a1,1,0,0,0-1.13-1"/><path class="cls-1" d="M42.23,24.85a.19.19,0,0,1-.1,0,.28.28,0,0,1-.25-.29A.22.22,0,0,1,42,24.4l1-.53h.08a.27.27,0,0,1,.24.29.21.21,0,0,1-.12.2Zm0,1.17c0-.17.18-.25.36-.25s.36.08.36.25v5.75c0,.18-.18.26-.36.26s-.36-.08-.36-.26Z"/><path class="cls-1" d="M43.6,31.73a.2.2,0,0,1,0-.07L45.36,26a.43.43,0,0,1,.44-.25.45.45,0,0,1,.45.25L48,31.66v.06c0,.18-.24.31-.44.31a.25.25,0,0,1-.26-.16l-.37-1.28H44.67l-.37,1.28A.26.26,0,0,1,44,32c-.19,0-.43-.12-.43-.3M46.75,30l-1-3.22-1,3.22Z"/></g></g></svg>